<mxfile host="app.diagrams.net" modified="2024-02-27T14:26:56.604Z" agent="Mozilla/5.0 (Windows NT 10.0; Win64; x64) AppleWebKit/537.36 (KHTML, like Gecko) Chrome/122.0.0.0 Safari/537.36 Edg/122.0.0.0" version="23.1.7" etag="oxK9U5W1giuf-gd8PPaC" type="github">
  <diagram name="Page-1" id="IkNdmvc62ZUy8D4TMa5W">
    <mxGraphModel>
      <root>
        <mxCell id="0" />
        <mxCell id="1" parent="0" />
      </root>
    </mxGraphModel>
  </diagram>
</mxfile>
